<?xml version="1.0" encoding="UTF-8" standalone="no"?>
<!-- Created with Inkscape (http://www.inkscape.org/) -->

<svg
   xmlns:dc="http://purl.org/dc/elements/1.1/"
   xmlns:cc="http://creativecommons.org/ns#"
   xmlns:rdf="http://www.w3.org/1999/02/22-rdf-syntax-ns#"
   xmlns:svg="http://www.w3.org/2000/svg"
   xmlns="http://www.w3.org/2000/svg"
   xmlns:sodipodi="http://sodipodi.sourceforge.net/DTD/sodipodi-0.dtd"
   xmlns:inkscape="http://www.inkscape.org/namespaces/inkscape"
   width="500"
   height="500"
   id="svg2"
   version="1.1"
   inkscape:version="0.48.4 r9939"
   sodipodi:docname="logo.svg"
   inkscape:export-filename="/usr/src/replikativ/doc/logo.png"
   inkscape:export-xdpi="198"
   inkscape:export-ydpi="198">
  <defs
     id="defs4" />
  <sodipodi:namedview
     id="base"
     pagecolor="#ffffff"
     bordercolor="#666666"
     borderopacity="1.0"
     inkscape:pageopacity="0.0"
     inkscape:pageshadow="2"
     inkscape:zoom="0.98994949"
     inkscape:cx="-64.397382"
     inkscape:cy="157.82419"
     inkscape:document-units="px"
     inkscape:current-layer="g3890"
     showgrid="false"
     inkscape:window-width="1920"
     inkscape:window-height="1056"
     inkscape:window-x="0"
     inkscape:window-y="24"
     inkscape:window-maximized="1" />
  <metadata
     id="metadata7">
    <rdf:RDF>
      <cc:Work
         rdf:about="">
        <dc:format>image/svg+xml</dc:format>
        <dc:type
           rdf:resource="http://purl.org/dc/dcmitype/StillImage" />
        <dc:title></dc:title>
      </cc:Work>
    </rdf:RDF>
  </metadata>
  <g
     inkscape:label="Ebene 1"
     inkscape:groupmode="layer"
     id="layer1"
     transform="translate(0,-552.36218)">
    <g
       id="g3890">
      <path
         transform="translate(0,552.36218)"
         inkscape:connector-curvature="0"
         id="path3878"
         d="m 47.857143,42.857142 0,416.428568 0,0 0,1.42858 z"
         style="fill:none;stroke:#000000;stroke-width:4;stroke-linecap:butt;stroke-linejoin:miter;stroke-opacity:1;stroke-miterlimit:4;stroke-dasharray:none" />
      <path
         transform="translate(0,552.36218)"
         inkscape:connector-curvature="0"
         id="path3880"
         d="M 49.285714,42.142857 234.64285,42.5 z"
         style="fill:none;stroke:#000000;stroke-width:4;stroke-linecap:butt;stroke-linejoin:miter;stroke-miterlimit:4;stroke-opacity:1;stroke-dasharray:none"
         sodipodi:nodetypes="ccc" />
      <path
         transform="translate(0,552.36218)"
         inkscape:connector-curvature="0"
         id="path3882"
         d="M 48.571429,252.85714 235,253.21428 z"
         style="fill:none;stroke:#000000;stroke-width:4;stroke-linecap:butt;stroke-linejoin:miter;stroke-miterlimit:4;stroke-opacity:1;stroke-dasharray:none"
         sodipodi:nodetypes="ccc" />
      <path
         transform="translate(0,552.36218)"
         inkscape:connector-curvature="0"
         id="path3884"
         d="M 234.28572,43.571428 360.71429,150 l 0,0 z"
         style="fill:none;stroke:#000000;stroke-width:4;stroke-linecap:butt;stroke-linejoin:miter;stroke-miterlimit:4;stroke-opacity:1;stroke-dasharray:none"
         sodipodi:nodetypes="sccs" />
      <path
         transform="translate(0,552.36218)"
         inkscape:connector-curvature="0"
         id="path3886"
         d="m 361.42857,151.42857 -124.28571,99.28572 0,-0.71429 z"
         style="fill:none;stroke:#000000;stroke-width:4;stroke-linecap:butt;stroke-linejoin:miter;stroke-opacity:1;stroke-miterlimit:4;stroke-dasharray:none" />
      <path
         transform="translate(0,552.36218)"
         inkscape:connector-curvature="0"
         id="path3888"
         d="M 235,252.85714 377.14286,460.71429 z"
         style="fill:none;stroke:#000000;stroke-width:4;stroke-linecap:butt;stroke-linejoin:miter;stroke-opacity:1;stroke-miterlimit:4;stroke-dasharray:none" />
    </g>
    <g
       id="g3869">
      <path
         transform="matrix(2.6383772,0,0,2.6383772,-217.94491,364.22632)"
         d="m 110.10662,87.666504 a 9.0913725,9.0913725 0 1 1 -18.182741,0 9.0913725,9.0913725 0 1 1 18.182741,0 z"
         sodipodi:ry="9.0913725"
         sodipodi:rx="9.0913725"
         sodipodi:cy="87.666504"
         sodipodi:cx="101.01525"
         id="path2985"
         style="fill:#ff00ff;fill-rule:evenodd;stroke:#000000;stroke-width:1.51608348;stroke-linecap:butt;stroke-linejoin:miter;stroke-miterlimit:4;stroke-opacity:1;stroke-dasharray:none"
         sodipodi:type="arc" />
      <path
         transform="matrix(2.6383772,0,0,2.6383772,-31.516335,364.22632)"
         d="m 110.10662,87.666504 a 9.0913725,9.0913725 0 1 1 -18.182741,0 9.0913725,9.0913725 0 1 1 18.182741,0 z"
         sodipodi:ry="9.0913725"
         sodipodi:rx="9.0913725"
         sodipodi:cy="87.666504"
         sodipodi:cx="101.01525"
         id="path2985-9"
         style="fill:#ff00ff;fill-rule:evenodd;stroke:#000000;stroke-width:1.51608348;stroke-linecap:butt;stroke-linejoin:miter;stroke-miterlimit:4;stroke-opacity:1;stroke-dasharray:none"
         sodipodi:type="arc" />
      <path
         transform="matrix(2.6383772,0,0,2.6383772,92.769377,468.25738)"
         d="m 110.10662,87.666504 a 9.0913725,9.0913725 0 1 1 -18.182741,0 9.0913725,9.0913725 0 1 1 18.182741,0 z"
         sodipodi:ry="9.0913725"
         sodipodi:rx="9.0913725"
         sodipodi:cy="87.666504"
         sodipodi:cx="101.01525"
         id="path2985-1"
         style="fill:#ff00ff;fill-rule:evenodd;stroke:#000000;stroke-width:1.51608348;stroke-linecap:butt;stroke-linejoin:miter;stroke-miterlimit:4;stroke-opacity:1;stroke-dasharray:none"
         sodipodi:type="arc" />
      <path
         transform="matrix(2.6383772,0,0,2.6383772,-31.516335,572.28845)"
         d="m 110.10662,87.666504 a 9.0913725,9.0913725 0 1 1 -18.182741,0 9.0913725,9.0913725 0 1 1 18.182741,0 z"
         sodipodi:ry="9.0913725"
         sodipodi:rx="9.0913725"
         sodipodi:cy="87.666504"
         sodipodi:cx="101.01525"
         id="path2985-2"
         style="fill:#ff00ff;fill-rule:evenodd;stroke:#000000;stroke-width:1.51608348;stroke-linecap:butt;stroke-linejoin:miter;stroke-miterlimit:4;stroke-opacity:1;stroke-dasharray:none"
         sodipodi:type="arc" />
      <path
         transform="matrix(2.6383772,0,0,2.6383772,-217.94491,572.28845)"
         d="m 110.10662,87.666504 a 9.0913725,9.0913725 0 1 1 -18.182741,0 9.0913725,9.0913725 0 1 1 18.182741,0 z"
         sodipodi:ry="9.0913725"
         sodipodi:rx="9.0913725"
         sodipodi:cy="87.666504"
         sodipodi:cx="101.01525"
         id="path2985-7"
         style="fill:#ff00ff;fill-rule:evenodd;stroke:#000000;stroke-width:1.51608348;stroke-linecap:butt;stroke-linejoin:miter;stroke-miterlimit:4;stroke-opacity:1;stroke-dasharray:none"
         sodipodi:type="arc" />
      <path
         transform="matrix(2.6383772,0,0,2.6383772,-217.94491,780.35059)"
         d="m 110.10662,87.666504 a 9.0913725,9.0913725 0 1 1 -18.182741,0 9.0913725,9.0913725 0 1 1 18.182741,0 z"
         sodipodi:ry="9.0913725"
         sodipodi:rx="9.0913725"
         sodipodi:cy="87.666504"
         sodipodi:cx="101.01525"
         id="path2985-0"
         style="fill:#ff00ff;fill-rule:evenodd;stroke:#000000;stroke-width:1.51608348;stroke-linecap:butt;stroke-linejoin:miter;stroke-miterlimit:4;stroke-opacity:1;stroke-dasharray:none"
         sodipodi:type="arc" />
      <path
         transform="matrix(2.6383772,0,0,2.6383772,112.05509,780.35059)"
         d="m 110.10662,87.666504 a 9.0913725,9.0913725 0 1 1 -18.182741,0 9.0913725,9.0913725 0 1 1 18.182741,0 z"
         sodipodi:ry="9.0913725"
         sodipodi:rx="9.0913725"
         sodipodi:cy="87.666504"
         sodipodi:cx="101.01525"
         id="path2985-93"
         style="fill:#ff00ff;fill-rule:evenodd;stroke:#000000;stroke-width:1.51608348;stroke-linecap:butt;stroke-linejoin:miter;stroke-miterlimit:4;stroke-opacity:1;stroke-dasharray:none"
         sodipodi:type="arc" />
    </g>
  </g>
</svg>
